<svg width="30" height="25" viewBox="0 0 30 25" fill="none" xmlns="http://www.w3.org/2000/svg">
<path d="M25.2891 7.8125H4.58594C4.26367 7.8125 4 7.54883 4 7.22656V5.46875C4 4.1748 5.0498 3.125 6.34375 3.125H8.6875V0.585938C8.6875 0.263672 8.95117 0 9.27344 0H11.2266C11.5488 0 11.8125 0.263672 11.8125 0.585938V3.125H18.0625V0.585938C18.0625 0.263672 18.3262 0 18.6484 0H20.6016C20.9238 0 21.1875 0.263672 21.1875 0.585938V3.125H23.5312C24.8252 3.125 25.875 4.1748 25.875 5.46875V7.22656C25.875 7.54883 25.6113 7.8125 25.2891 7.8125ZM4.58594 9.375H25.2891C25.6113 9.375 25.875 9.63867 25.875 9.96094V22.6562C25.875 23.9502 24.8252 25 23.5312 25H6.34375C5.0498 25 4 23.9502 4 22.6562V9.96094C4 9.63867 4.26367 9.375 4.58594 9.375ZM10.25 19.3359C10.25 19.0137 9.98633 18.75 9.66406 18.75H7.71094C7.38867 18.75 7.125 19.0137 7.125 19.3359V21.2891C7.125 21.6113 7.38867 21.875 7.71094 21.875H9.66406C9.98633 21.875 10.25 21.6113 10.25 21.2891V19.3359ZM10.25 13.0859C10.25 12.7637 9.98633 12.5 9.66406 12.5H7.71094C7.38867 12.5 7.125 12.7637 7.125 13.0859V15.0391C7.125 15.3613 7.38867 15.625 7.71094 15.625H9.66406C9.98633 15.625 10.25 15.3613 10.25 15.0391V13.0859ZM16.5 19.3359C16.5 19.0137 16.2363 18.75 15.9141 18.75H13.9609C13.6387 18.75 13.375 19.0137 13.375 19.3359V21.2891C13.375 21.6113 13.6387 21.875 13.9609 21.875H15.9141C16.2363 21.875 16.5 21.6113 16.5 21.2891V19.3359ZM16.5 13.0859C16.5 12.7637 16.2363 12.5 15.9141 12.5H13.9609C13.6387 12.5 13.375 12.7637 13.375 13.0859V15.0391C13.375 15.3613 13.6387 15.625 13.9609 15.625H15.9141C16.2363 15.625 16.5 15.3613 16.5 15.0391V13.0859ZM22.75 19.3359C22.75 19.0137 22.4863 18.75 22.1641 18.75H20.2109C19.8887 18.75 19.625 19.0137 19.625 19.3359V21.2891C19.625 21.6113 19.8887 21.875 20.2109 21.875H22.1641C22.4863 21.875 22.75 21.6113 22.75 21.2891V19.3359ZM22.75 13.0859C22.75 12.7637 22.4863 12.5 22.1641 12.5H20.2109C19.8887 12.5 19.625 12.7637 19.625 13.0859V15.0391C19.625 15.3613 19.8887 15.625 20.2109 15.625H22.1641C22.4863 15.625 22.75 15.3613 22.75 15.0391V13.0859Z" fill="#71717A"/>
</svg>
