<svg width="40" height="35" viewBox="0 0 40 35" fill="none" xmlns="http://www.w3.org/2000/svg">
<path d="M34.5021 21.875H14.4629L14.9103 24.0625H33.2592C34.312 24.0625 35.0923 25.0401 34.859 26.0667L34.4819 27.7262C35.7596 28.3464 36.6406 29.6562 36.6406 31.1719C36.6406 33.3048 34.8961 35.0303 32.7562 34.9996C30.7175 34.9703 29.0408 33.3158 28.9858 31.2776C28.9557 30.1643 29.4018 29.1551 30.1344 28.4374H15.803C16.5124 29.1324 16.9531 30.1004 16.9531 31.1719C16.9531 33.3466 15.1397 35.0978 12.9425 34.9958C10.9915 34.9052 9.40481 33.3288 9.30227 31.3784C9.22311 29.8722 10.0157 28.5445 11.2198 27.852L6.41778 4.375H1.64062C0.734521 4.375 0 3.64048 0 2.73437V1.64062C0 0.734521 0.734521 0 1.64062 0H8.64944C9.42881 0 10.1006 0.54831 10.2568 1.31182L10.8834 4.375H37.7337C38.7865 4.375 39.5668 5.35261 39.3335 6.37923L36.1019 20.598C35.9322 21.3449 35.2682 21.875 34.5021 21.875ZM27.5508 13.125H24.6094V9.02344C24.6094 8.57042 24.2421 8.20312 23.7891 8.20312H22.1484C21.6954 8.20312 21.3281 8.57042 21.3281 9.02344V13.125H18.3867C17.6559 13.125 17.2899 14.0086 17.8067 14.5253L22.3887 19.1074C22.709 19.4277 23.2284 19.4277 23.5488 19.1074L28.1309 14.5253C28.6476 14.0086 28.2816 13.125 27.5508 13.125Z" fill="#4B5563"/>
</svg>
