<svg width="44" height="35" viewBox="0 0 44 35" fill="none" xmlns="http://www.w3.org/2000/svg">
<path d="M40.4688 0H18.5938C16.7815 0 15.3125 1.46904 15.3125 3.28125V6.5625H12.2966C11.4264 6.5625 10.5918 6.90821 9.97643 7.52356L3.14856 14.3514C2.53321 14.9668 2.1875 15.8014 2.1875 16.6716V24.0625H1.64062C0.734521 24.0625 0 24.797 0 25.7031V26.7969C0 27.703 0.734521 28.4375 1.64062 28.4375H4.375C4.375 32.0618 7.31315 35 10.9375 35C14.5618 35 17.5 32.0618 17.5 28.4375H26.25C26.25 32.0618 29.1882 35 32.8125 35C36.4368 35 39.375 32.0618 39.375 28.4375H42.1094C43.0155 28.4375 43.75 27.703 43.75 26.7969V3.28125C43.75 1.46904 42.281 0 40.4688 0ZM10.9375 31.7188C9.12823 31.7188 7.65625 30.2468 7.65625 28.4375C7.65625 26.6282 9.12823 25.1562 10.9375 25.1562C12.7468 25.1562 14.2188 26.6282 14.2188 28.4375C14.2188 30.2468 12.7468 31.7188 10.9375 31.7188ZM15.3125 17.5H5.46875V16.6716L12.2966 9.84375H15.3125V17.5ZM32.8125 31.7188C31.0032 31.7188 29.5312 30.2468 29.5312 28.4375C29.5312 26.6282 31.0032 25.1562 32.8125 25.1562C34.6218 25.1562 36.0938 26.6282 36.0938 28.4375C36.0938 30.2468 34.6218 31.7188 32.8125 31.7188Z" fill="#4B5563"/>
</svg>
