<svg width="35" height="35" viewBox="0 0 35 35" fill="none" xmlns="http://www.w3.org/2000/svg">
<path d="M17.5 0C23.5406 0 28.4375 4.89686 28.4375 10.9375C28.4375 16.9781 23.5406 21.875 17.5 21.875C11.4594 21.875 6.5625 16.9781 6.5625 10.9375C6.5625 4.89686 11.4594 0 17.5 0ZM30.0291 22.8198L25.1542 21.6011C20.0325 25.285 13.8245 24.4629 9.8458 21.6011L4.97089 22.8198C2.04948 23.5501 0 26.175 0 29.1864V31.7188C0 33.531 1.46904 35 3.28125 35H31.7188C33.531 35 35 33.531 35 31.7188V29.1864C35 26.175 32.9505 23.5501 30.0291 22.8198Z" fill="#4B5563"/>
</svg>
